<svg width="992" height="500" viewBox="0 0 992 500" fill="none" xmlns="http://www.w3.org/2000/svg">
<rect width="992" height="500" fill="url(#paint0_linear_6_158)"/>
<path d="M159.423 163.173C162.492 157.476 166.92 152.619 172.319 149.031L262.912 86L170.088 238.931C170.088 238.931 161.978 225.275 158.814 218.365C154.873 209.677 152.885 200.236 152.99 190.702C153.095 181.168 155.291 171.772 159.423 163.173ZM122.034 268.669C123.057 283.294 127.204 297.532 134.198 310.43C141.191 323.329 150.87 334.589 162.586 343.458L262.79 413.075C262.79 413.075 200.096 323.054 147.217 233.477C141.863 224.013 138.264 213.666 136.592 202.931C135.852 198.07 135.852 193.125 136.592 188.264C135.213 190.81 132.537 196.022 132.537 196.022C127.175 206.917 123.523 218.568 121.709 230.568C120.665 243.252 120.774 256.004 122.034 268.669ZM377.512 280.79C374.267 273.881 366.238 260.224 366.238 260.224L273.577 413.075L364.17 350.084C369.568 346.496 373.997 341.64 377.066 335.943C381.198 327.343 383.393 317.947 383.499 308.414C383.604 298.88 381.616 289.438 377.674 280.75L377.512 280.79ZM414.292 230.446C413.269 215.822 409.122 201.583 402.129 188.685C395.135 175.787 385.456 164.526 373.74 155.658L273.698 86C273.698 86 336.351 176.021 389.272 265.598C394.611 275.065 398.196 285.412 399.856 296.144C400.596 301.005 400.596 305.95 399.856 310.811C401.235 308.265 403.911 303.053 403.911 303.053C409.273 292.158 412.925 280.507 414.738 268.507C415.796 255.824 415.701 243.072 414.455 230.406L414.292 230.446Z" fill="white"/>
<path d="M583.772 322H488.912V171.652H583.772V200.008H510.332L519.512 191.44V232.648H576.632V259.576H519.512V302.212L510.332 293.644H583.772V322ZM639.389 322H608.993V171.652H639.389L714.461 285.076H705.281V171.652H735.473V322H705.281L630.005 208.78H639.389V322ZM755.374 214.696C755.374 205.72 757.686 197.832 762.31 191.032C767.07 184.096 773.53 178.656 781.69 174.712C789.986 170.768 799.438 168.796 810.046 168.796C820.654 168.796 829.766 170.7 837.382 174.508C845.134 178.18 851.118 183.416 855.334 190.216C859.686 197.016 861.862 205.108 861.862 214.492H831.466C831.33 208.78 829.29 204.292 825.346 201.028C821.538 197.764 816.302 196.132 809.638 196.132C802.43 196.132 796.65 197.696 792.298 200.824C788.082 203.952 785.974 208.236 785.974 213.676C785.974 218.572 787.266 222.38 789.85 225.1C792.57 227.684 796.718 229.588 802.294 230.812L825.346 235.708C838.538 238.428 848.33 243.12 854.722 249.784C861.114 256.448 864.31 265.628 864.31 277.324C864.31 286.844 861.998 295.208 857.374 302.416C852.75 309.488 846.154 314.996 837.586 318.94C829.154 322.748 819.226 324.652 807.802 324.652C796.922 324.652 787.334 322.816 779.038 319.144C770.878 315.336 764.554 310.032 760.066 303.232C755.578 296.296 753.266 288.272 753.13 279.16H783.73C783.73 284.872 785.838 289.36 790.054 292.624C794.406 295.752 800.39 297.316 808.006 297.316C815.894 297.316 822.15 295.82 826.774 292.828C831.398 289.7 833.71 285.552 833.71 280.384C833.71 275.76 832.554 272.224 830.242 269.776C827.93 267.192 824.054 265.356 818.614 264.268L795.358 259.372C782.166 256.652 772.17 251.552 765.37 244.072C758.706 236.592 755.374 226.8 755.374 214.696Z" fill="white"/>
<defs>
<linearGradient id="paint0_linear_6_158" x1="660.755" y1="559.259" x2="361.299" y2="-486.474" gradientUnits="userSpaceOnUse">
<stop stop-color="#44BCF0"/>
<stop offset="0.378795" stop-color="#7298F8"/>
<stop offset="1" stop-color="#A099FF"/>
</linearGradient>
</defs>
</svg>
