<svg width="992" height="500" viewBox="0 0 992 500" fill="none" xmlns="http://www.w3.org/2000/svg">
<path d="M162.423 163.173C165.492 157.476 169.92 152.619 175.319 149.031L265.912 86L173.088 238.931C173.088 238.931 164.978 225.275 161.814 218.365C157.873 209.677 155.885 200.236 155.99 190.702C156.095 181.168 158.291 171.772 162.423 163.173ZM125.034 268.669C126.057 283.294 130.204 297.532 137.198 310.43C144.191 323.329 153.87 334.589 165.586 343.458L265.79 413.075C265.79 413.075 203.096 323.054 150.217 233.477C144.863 224.013 141.264 213.666 139.592 202.931C138.852 198.07 138.852 193.125 139.592 188.264C138.213 190.81 135.537 196.022 135.537 196.022C130.175 206.917 126.523 218.568 124.709 230.568C123.665 243.252 123.774 256.004 125.034 268.669ZM380.512 280.79C377.267 273.881 369.238 260.224 369.238 260.224L276.577 413.075L367.17 350.084C372.568 346.496 376.997 341.64 380.066 335.943C384.198 327.343 386.393 317.947 386.499 308.414C386.604 298.88 384.616 289.438 380.674 280.75L380.512 280.79ZM417.292 230.446C416.269 215.822 412.122 201.583 405.129 188.685C398.135 175.787 388.456 164.526 376.74 155.658L276.698 86C276.698 86 339.351 176.021 392.272 265.598C397.611 275.065 401.196 285.412 402.856 296.144C403.596 301.005 403.596 305.95 402.856 310.811C404.235 308.265 406.911 303.053 406.911 303.053C412.273 292.158 415.925 280.507 417.738 268.507C418.796 255.824 418.701 243.072 417.455 230.406L417.292 230.446Z" fill="url(#paint0_linear_608_131)"/>
<path d="M586.772 322H491.912V171.652H586.772V200.008H513.332L522.512 191.44V232.648H579.632V259.576H522.512V302.212L513.332 293.644H586.772V322Z" fill="url(#paint1_linear_608_131)"/>
<path d="M642.389 322H611.993V171.652H642.389L717.461 285.076H708.281V171.652H738.473V322H708.281L633.005 208.78H642.389V322Z" fill="url(#paint2_linear_608_131)"/>
<path d="M758.374 214.696C758.374 205.72 760.686 197.832 765.31 191.032C770.07 184.096 776.53 178.656 784.69 174.712C792.986 170.768 802.438 168.796 813.046 168.796C823.654 168.796 832.766 170.7 840.382 174.508C848.134 178.18 854.118 183.416 858.334 190.216C862.686 197.016 864.862 205.108 864.862 214.492H834.466C834.33 208.78 832.29 204.292 828.346 201.028C824.538 197.764 819.302 196.132 812.638 196.132C805.43 196.132 799.65 197.696 795.298 200.824C791.082 203.952 788.974 208.236 788.974 213.676C788.974 218.572 790.266 222.38 792.85 225.1C795.57 227.684 799.718 229.588 805.294 230.812L828.346 235.708C841.538 238.428 851.33 243.12 857.722 249.784C864.114 256.448 867.31 265.628 867.31 277.324C867.31 286.844 864.998 295.208 860.374 302.416C855.75 309.488 849.154 314.996 840.586 318.94C832.154 322.748 822.226 324.652 810.802 324.652C799.922 324.652 790.334 322.816 782.038 319.144C773.878 315.336 767.554 310.032 763.066 303.232C758.578 296.296 756.266 288.272 756.13 279.16H786.73C786.73 284.872 788.838 289.36 793.054 292.624C797.406 295.752 803.39 297.316 811.006 297.316C818.894 297.316 825.15 295.82 829.774 292.828C834.398 289.7 836.71 285.552 836.71 280.384C836.71 275.76 835.554 272.224 833.242 269.776C830.93 267.192 827.054 265.356 821.614 264.268L798.358 259.372C785.166 256.652 775.17 251.552 768.37 244.072C761.706 236.592 758.374 226.8 758.374 214.696Z" fill="url(#paint3_linear_608_131)"/>
<defs>
<linearGradient id="paint0_linear_608_131" x1="813.049" y1="519.701" x2="603.507" y2="-119.328" gradientUnits="userSpaceOnUse">
<stop stop-color="#DE82FF"/>
<stop offset="1" stop-color="#7F6AFF"/>
</linearGradient>
<linearGradient id="paint1_linear_608_131" x1="813.049" y1="519.701" x2="603.507" y2="-119.328" gradientUnits="userSpaceOnUse">
<stop stop-color="#DE82FF"/>
<stop offset="1" stop-color="#7F6AFF"/>
</linearGradient>
<linearGradient id="paint2_linear_608_131" x1="813.049" y1="519.701" x2="603.507" y2="-119.328" gradientUnits="userSpaceOnUse">
<stop stop-color="#DE82FF"/>
<stop offset="1" stop-color="#7F6AFF"/>
</linearGradient>
<linearGradient id="paint3_linear_608_131" x1="813.049" y1="519.701" x2="603.507" y2="-119.328" gradientUnits="userSpaceOnUse">
<stop stop-color="#DE82FF"/>
<stop offset="1" stop-color="#7F6AFF"/>
</linearGradient>
</defs>
</svg>
