<svg width="992" height="500" viewBox="0 0 992 500" fill="none" xmlns="http://www.w3.org/2000/svg">
<path d="M141.423 163.173C144.492 157.476 148.92 152.619 154.319 149.031L244.912 86L152.088 238.931C152.088 238.931 143.978 225.275 140.814 218.365C136.873 209.677 134.885 200.236 134.99 190.702C135.095 181.168 137.291 171.772 141.423 163.173ZM104.034 268.669C105.057 283.294 109.204 297.532 116.198 310.43C123.191 323.329 132.87 334.589 144.586 343.458L244.79 413.075C244.79 413.075 182.096 323.054 129.217 233.477C123.863 224.013 120.264 213.666 118.592 202.931C117.852 198.07 117.852 193.125 118.592 188.264C117.213 190.81 114.537 196.022 114.537 196.022C109.175 206.917 105.523 218.568 103.709 230.568C102.665 243.252 102.774 256.004 104.034 268.669ZM359.512 280.79C356.267 273.881 348.238 260.224 348.238 260.224L255.577 413.075L346.17 350.084C351.568 346.496 355.997 341.64 359.066 335.943C363.198 327.343 365.393 317.947 365.499 308.414C365.604 298.88 363.616 289.438 359.674 280.75L359.512 280.79ZM396.292 230.446C395.269 215.822 391.122 201.583 384.129 188.685C377.135 175.787 367.456 164.526 355.74 155.658L255.698 86C255.698 86 318.351 176.021 371.272 265.598C376.611 275.065 380.196 285.412 381.856 296.144C382.596 301.005 382.596 305.95 381.856 310.811C383.235 308.265 385.911 303.053 385.911 303.053C391.273 292.158 394.925 280.507 396.738 268.507C397.796 255.824 397.701 243.072 396.455 230.406L396.292 230.446Z" fill="url(#paint0_linear_36_56)"/>
<path d="M565.772 322H470.912V171.652H565.772V200.008H492.332L501.512 191.44V232.648H558.632V259.576H501.512V302.212L492.332 293.644H565.772V322Z" fill="url(#paint1_linear_36_56)"/>
<path d="M655.661 324.448C640.701 324.448 627.781 321.32 616.901 315.064C606.021 308.672 597.589 299.696 591.605 288.136C585.621 276.576 582.629 262.84 582.629 246.928C582.629 231.288 585.689 217.688 591.809 206.128C598.065 194.432 606.769 185.388 617.921 178.996C629.209 172.468 642.197 169.204 656.885 169.204C669.261 169.204 680.277 171.448 689.933 175.936C699.725 180.424 707.681 186.748 713.801 194.908C720.057 203.068 723.933 212.656 725.429 223.672H693.197C690.885 215.648 686.465 209.528 679.937 205.312C673.545 200.96 665.589 198.784 656.069 198.784C647.637 198.784 640.293 200.688 634.037 204.496C627.917 208.304 623.157 213.812 619.757 221.02C616.493 228.228 614.861 236.864 614.861 246.928C614.861 256.584 616.561 265.084 619.961 272.428C623.361 279.636 628.121 285.212 634.241 289.156C640.497 292.964 647.773 294.868 656.069 294.868C665.725 294.868 673.885 292.624 680.549 288.136C687.349 283.648 691.837 277.528 694.013 269.776H725.837C723.933 280.656 719.785 290.244 713.393 298.54C707.001 306.7 698.841 313.092 688.913 317.716C678.985 322.204 667.901 324.448 655.661 324.448Z" fill="url(#paint2_linear_36_56)"/>
<path d="M884.648 246.724C884.648 261.956 881.52 275.42 875.264 287.116C869.144 298.812 860.508 307.992 849.356 314.656C838.34 321.184 825.556 324.448 811.004 324.448C796.588 324.448 783.872 321.184 772.856 314.656C761.84 307.992 753.272 298.88 747.152 287.32C741.032 275.624 737.972 262.16 737.972 246.928C737.972 231.56 741.032 218.028 747.152 206.332C753.408 194.636 762.044 185.524 773.06 178.996C784.076 172.332 796.792 169 811.208 169C825.76 169 838.544 172.332 849.56 178.996C860.576 185.524 869.144 194.636 875.264 206.332C881.52 217.892 884.648 231.356 884.648 246.724ZM852.416 246.724C852.416 236.66 850.716 228.092 847.316 221.02C844.052 213.812 839.36 208.304 833.24 204.496C827.256 200.552 819.98 198.58 811.412 198.58C802.844 198.58 795.5 200.552 789.38 204.496C783.26 208.304 778.5 213.812 775.1 221.02C771.836 228.092 770.204 236.66 770.204 246.724C770.204 256.652 771.836 265.288 775.1 272.632C778.5 279.84 783.26 285.416 789.38 289.36C795.5 293.168 802.844 295.072 811.412 295.072C819.98 295.072 827.256 293.1 833.24 289.156C839.36 285.212 844.052 279.636 847.316 272.428C850.716 265.084 852.416 256.516 852.416 246.724Z" fill="url(#paint3_linear_36_56)"/>
<defs>
<linearGradient id="paint0_linear_36_56" x1="827.588" y1="519.701" x2="626.455" y2="-125.32" gradientUnits="userSpaceOnUse">
<stop stop-color="#73A6F2"/>
<stop offset="1" stop-color="#42C2AB"/>
</linearGradient>
<linearGradient id="paint1_linear_36_56" x1="827.588" y1="519.701" x2="626.455" y2="-125.32" gradientUnits="userSpaceOnUse">
<stop stop-color="#73A6F2"/>
<stop offset="1" stop-color="#42C2AB"/>
</linearGradient>
<linearGradient id="paint2_linear_36_56" x1="827.588" y1="519.701" x2="626.455" y2="-125.32" gradientUnits="userSpaceOnUse">
<stop stop-color="#73A6F2"/>
<stop offset="1" stop-color="#42C2AB"/>
</linearGradient>
<linearGradient id="paint3_linear_36_56" x1="827.588" y1="519.701" x2="626.455" y2="-125.32" gradientUnits="userSpaceOnUse">
<stop stop-color="#73A6F2"/>
<stop offset="1" stop-color="#42C2AB"/>
</linearGradient>
</defs>
</svg>
