<svg width="992" height="500" viewBox="0 0 992 500" fill="none" xmlns="http://www.w3.org/2000/svg">
<path d="M139.423 163.173C142.492 157.476 146.92 152.619 152.319 149.031L242.912 86L150.088 238.931C150.088 238.931 141.978 225.275 138.814 218.365C134.873 209.677 132.885 200.236 132.99 190.702C133.095 181.168 135.291 171.772 139.423 163.173ZM102.034 268.669C103.057 283.294 107.204 297.532 114.198 310.43C121.191 323.329 130.87 334.589 142.586 343.458L242.79 413.075C242.79 413.075 180.096 323.054 127.217 233.477C121.863 224.013 118.264 213.666 116.592 202.931C115.852 198.07 115.852 193.125 116.592 188.264C115.213 190.81 112.537 196.022 112.537 196.022C107.175 206.917 103.523 218.568 101.709 230.568C100.665 243.252 100.774 256.004 102.034 268.669ZM357.512 280.79C354.267 273.881 346.238 260.224 346.238 260.224L253.577 413.075L344.17 350.084C349.568 346.496 353.997 341.64 357.066 335.943C361.198 327.343 363.393 317.947 363.499 308.414C363.604 298.88 361.616 289.438 357.674 280.75L357.512 280.79ZM394.292 230.446C393.269 215.822 389.122 201.583 382.129 188.685C375.135 175.787 365.456 164.526 353.74 155.658L253.698 86C253.698 86 316.351 176.021 369.272 265.598C374.611 275.065 378.196 285.412 379.856 296.144C380.596 301.005 380.596 305.95 379.856 310.811C381.235 308.265 383.911 303.053 383.911 303.053C389.273 292.158 392.925 280.507 394.738 268.507C395.796 255.824 395.701 243.072 394.455 230.406L394.292 230.446Z" fill="#333333"/>
<path d="M526.236 322H468.912V171.652H524.4C539.224 171.652 552.212 174.848 563.364 181.24C574.516 187.632 583.288 196.54 589.68 207.964C596.072 219.252 599.268 232.308 599.268 247.132C599.268 261.82 596.14 274.808 589.884 286.096C583.764 297.384 575.196 306.224 564.18 312.616C553.3 318.872 540.652 322 526.236 322ZM499.512 185.728V308.332L485.028 293.644H523.176C532.424 293.644 540.312 291.808 546.84 288.136C553.368 284.464 558.332 279.16 561.732 272.224C565.268 265.152 567.036 256.788 567.036 247.132C567.036 237.34 565.2 228.908 561.528 221.836C557.856 214.764 552.62 209.392 545.82 205.72C539.02 201.912 530.928 200.008 521.544 200.008H485.028L499.512 185.728Z" fill="#333333"/>
<path d="M630.851 322H599.027L652.883 171.652H683.075L736.931 322H704.495L693.275 289.156H642.071L630.851 322ZM663.899 225.712L651.047 263.452H684.503L671.651 225.712C670.835 223.4 670.019 221.02 669.203 218.572C668.523 215.988 668.047 213.88 667.775 212.248C667.503 213.88 667.027 215.92 666.347 218.368C665.667 220.816 664.851 223.264 663.899 225.712Z" fill="#333333"/>
<path d="M883.246 246.724C883.246 261.956 880.118 275.42 873.862 287.116C867.742 298.812 859.106 307.992 847.954 314.656C836.938 321.184 824.154 324.448 809.602 324.448C795.186 324.448 782.47 321.184 771.454 314.656C760.438 307.992 751.87 298.88 745.75 287.32C739.63 275.624 736.57 262.16 736.57 246.928C736.57 231.56 739.63 218.028 745.75 206.332C752.006 194.636 760.642 185.524 771.658 178.996C782.674 172.332 795.39 169 809.806 169C824.358 169 837.142 172.332 848.158 178.996C859.174 185.524 867.742 194.636 873.862 206.332C880.118 217.892 883.246 231.356 883.246 246.724ZM851.014 246.724C851.014 236.66 849.314 228.092 845.914 221.02C842.65 213.812 837.958 208.304 831.838 204.496C825.854 200.552 818.578 198.58 810.01 198.58C801.442 198.58 794.098 200.552 787.978 204.496C781.858 208.304 777.098 213.812 773.698 221.02C770.434 228.092 768.802 236.66 768.802 246.724C768.802 256.652 770.434 265.288 773.698 272.632C777.098 279.84 781.858 285.416 787.978 289.36C794.098 293.168 801.442 295.072 810.01 295.072C818.578 295.072 825.854 293.1 831.838 289.156C837.958 285.212 842.65 279.636 845.914 272.428C849.314 265.084 851.014 256.516 851.014 246.724Z" fill="#333333"/>
</svg>
